<svg xmlns="http://www.w3.org/2000/svg" version="1.1" xmlns:xlink="http://www.w3.org/1999/xlink" xmlns:svgjs="http://svgjs.dev/svgjs" width="2000" height="2543" viewBox="0 0 2000 2543"><g transform="matrix(1,0,0,1,-0.373596389967247,-4.101612903225941)"><svg viewBox="0 0 195 248" data-background-color="#636365" preserveAspectRatio="xMidYMid meet" height="2543" width="2000" xmlns="http://www.w3.org/2000/svg" xmlns:xlink="http://www.w3.org/1999/xlink"><g id="tight-bounds" transform="matrix(1,0,0,1,0.03642564802180459,0.4000000000000057)"><svg viewBox="0 0 194.92714870395636 247.2" height="247.2" width="194.92714870395636"><g><svg viewBox="0 0 194.92714870395636 247.2" height="247.2" width="194.92714870395636"><g><svg viewBox="0 0 194.92714870395636 247.2" height="247.2" width="194.92714870395636"><g id="textblocktransform"><svg viewBox="0 0 194.92714870395636 247.2" height="247.2" width="194.92714870395636" id="textblock"><g><svg viewBox="0 0 194.92714870395636 247.2" height="247.2" width="194.92714870395636"><g transform="matrix(1,0,0,1,0,0)"><svg width="194.92714870395636" viewBox="2.5 -36.3 28.9 36.65" height="247.2" data-palette-color="#ffffff"><path d="M25.15 0.35L25.15 0.35Q23.4 0.35 22.13-0.53 20.85-1.4 19.93-2.8 19-4.2 18.32-5.88 17.65-7.55 17.05-9.1L17.05-9.1Q16.15-11.6 15.4-13.48 14.65-15.35 13.75-16.65L13.75-16.65Q12.8-12.85 12.23-9.35 11.65-5.85 11.5-1.55L11.5-1.55Q10.6-0.7 9.47-0.25 8.35 0.2 7.2 0.2L7.2 0.2Q5.45 0.2 4.1-1.03 2.75-2.25 2.75-5.15L2.75-5.15Q2.75-7.15 3.35-9.65 3.95-12.15 4.83-14.8 5.7-17.45 6.6-19.95 7.5-22.45 8.1-24.48 8.7-26.5 8.7-27.7L8.7-27.7Q8.7-28.95 7.85-28.95L7.85-28.95Q6.9-28.95 5.55-27.53 4.2-26.1 2.8-23.55L2.8-23.55 2.5-23.65Q2.5-26.65 3.8-29 5.1-31.35 7.33-32.98 9.55-34.6 12.48-35.45 15.4-36.3 18.6-36.3L18.6-36.3Q22.85-36.3 25.5-34.98 28.15-33.65 29.43-31.58 30.7-29.5 30.7-27.15L30.7-27.15Q30.7-24.75 29.48-22.45 28.25-20.15 26.03-18.63 23.8-17.1 20.75-16.85L20.75-16.85Q21.8-16.05 22.55-14.83 23.3-13.6 24.1-12.05L24.1-12.05Q24.8-10.65 25.75-9.38 26.7-8.1 28.35-8.1L28.35-8.1Q29.2-8.1 29.75-8.53 30.3-8.95 30.7-9.95L30.7-9.95 31-9.8Q31.25-9.05 31.33-8.35 31.4-7.65 31.4-7.05L31.4-7.05Q31.4-3.9 29.65-1.78 27.9 0.35 25.15 0.35ZM16.25-21.25L16.25-21.25Q18.05-21.25 19.38-22.08 20.7-22.9 21.43-24.13 22.15-25.35 22.15-26.6L22.15-26.6Q22.15-28.15 20.98-29.33 19.8-30.5 17.15-30.5L17.15-30.5Q16.75-30.5 16.32-30.48 15.9-30.45 15.5-30.4L15.5-30.4Q15.55-30.05 15.55-29.73 15.55-29.4 15.55-29.4L15.55-29.4Q15.55-27.1 15.38-24.95 15.2-22.8 14.9-21.35L14.9-21.35Q15.25-21.3 15.58-21.28 15.9-21.25 16.25-21.25Z" opacity="1" transform="matrix(1,0,0,1,0,0)" fill="#ffffff" class="wordmark-text-0" data-fill-palette-color="primary" id="text-0"></path></svg></g></svg></g></svg></g></svg></g><g></g></svg></g><defs></defs></svg><rect width="194.92714870395636" height="247.2" fill="none" stroke="none" visibility="hidden"></rect></g></svg></g></svg>